<svg width="48" height="48" viewBox="0 0 48 48" fill="none" xmlns="http://www.w3.org/2000/svg">
<mask id="mask0" style="mask-type:alpha" maskUnits="userSpaceOnUse" x="0" y="0" width="48" height="48">
<rect width="48" height="48" fill="white"/>
</mask>
<g mask="url(#mask0)">
<path fill-rule="evenodd" clip-rule="evenodd" d="M19.5303 29.3395L25.3982 16.1395H29.1138L35.0312 29.5156H31.2605L30.1872 27.0385H26.8018L25.1725 25.123L23.3835 29.5156H19.6404L19.5303 29.3395ZM27.2147 20.1028L25.6128 24.033H29.0312L27.2147 20.1028Z" fill="#BC4F4F"/>
<path d="M35.7412 16.1395L35.8513 29.5156H39.1541V16.1395H35.7412Z" fill="#BC4F4F"/>
<path d="M36.7762 30.3688L35.6753 32.8569H36.4019L36.8202 31.8386L37.1175 31.1065L37.4533 31.8386H36.8202L36.7377 32.0367L37.0404 32.3945H37.668L37.8661 32.8569H38.5707L37.4698 30.3688H36.7762Z" fill="#BC4F4F"/>
<path d="M38.7029 30.3688L38.7249 32.8569H39.3359V30.3688H38.7029Z" fill="#BC4F4F"/>
<path d="M19.6403 29.5156L19.5302 29.3395L19.4531 29.5156H19.6403Z" fill="#4B4B4B"/>
<path d="M19.6403 29.5156L19.5302 29.3395L19.4531 29.5156H19.6403Z" fill="#4B4B4B"/>
<path fill-rule="evenodd" clip-rule="evenodd" d="M40.944 7.0413C43.1459 9.24313 44.8743 11.8028 46.0798 14.6596C47.3294 17.6156 47.9624 20.7532 47.9624 23.9954C47.9624 27.2321 47.3294 30.3697 46.0798 33.3257C44.8743 36.1826 43.1459 38.7422 40.944 40.944C38.7422 43.1459 36.1826 44.8743 33.3257 46.0798C30.3697 47.3294 27.2321 47.9624 23.9954 47.9624C21.089 47.9624 18.2652 47.4505 15.5789 46.4431V45.9037V45.9034C15.5789 44.8081 15.5789 43.7128 15.5679 42.6174C18.1385 43.7844 20.9954 44.434 23.9954 44.434C35.2688 44.434 44.4395 35.2688 44.4395 23.9954C44.4395 12.722 35.2688 3.55139 23.9954 3.55139C12.722 3.55139 3.55139 12.722 3.55139 23.9954C3.55139 28.6028 5.08166 32.8578 7.66332 36.2817L7.61928 16.256L16.0138 16.2009C16.0138 16.2009 19.7514 16.2009 19.5312 20.4945C19.3936 23.1807 18.5404 24.122 16.5918 24.6505L19.5312 29.3459L19.4541 29.522H19.6413L15.8486 29.6046L11.0596 22.834L10.9936 39.7661L10.9771 44.1257C9.8046 43.3661 8.69818 42.5018 7.66882 41.544C7.45965 41.3459 7.24497 41.1422 7.0413 40.9385C4.83946 38.7367 3.11102 36.1771 1.90552 33.3202C0.655977 30.3642 0.0229492 27.2266 0.0229492 23.9899C0.0229492 20.7532 0.655977 17.6156 1.91102 14.6596C3.11653 11.8028 4.84497 9.24313 7.0468 7.0413C9.24864 4.83946 11.8083 3.11102 14.6651 1.90552C17.6211 0.655977 20.7587 0.0229492 23.9954 0.0229492C27.2321 0.0229492 30.3697 0.655977 33.3257 1.90552C36.1826 3.11102 38.7422 4.83946 40.944 7.0413ZM14.6037 18.7762H11.1908C11.1159 18.7762 11.0919 18.7838 11.0495 18.7974C11.0297 18.8038 11.0058 18.8114 10.9707 18.8202C10.9872 20.0202 10.9982 21.6 10.9982 21.7156C11.0973 21.7376 14.6037 21.7486 14.6037 21.7486C15.3468 21.7486 15.9523 21.1431 15.9523 20.4V20.1248C15.9523 19.3817 15.3468 18.7762 14.6037 18.7762Z" fill="url(#paint0_linear)"/>
<path d="M25.0679 31.8386L25.3487 31.1065L25.6679 31.8386H25.0679L24.9854 32.0367L25.2771 32.3945H25.8771L26.0643 32.8569H26.7303L25.6844 30.3688H25.0294L23.978 32.8569H24.6716L24.9854 32.0367L25.0679 31.8386Z" fill="url(#paint1_linear)"/>
<path d="M23.6972 31.6569C23.7467 31.5853 23.7908 31.5082 23.8183 31.4202C23.8458 31.3376 23.8623 31.2495 23.8623 31.1669C23.8623 31.0679 23.8458 30.9743 23.8073 30.8752C23.7688 30.7816 23.7192 30.6936 23.6532 30.6165C23.5871 30.5394 23.5156 30.4789 23.4275 30.4348C23.3394 30.3908 23.2458 30.3633 23.1523 30.3633H22.2605H21.7266V32.8624H22.2605V31.9266V31.4367V30.9027H23.1523C23.1743 30.9027 23.2018 30.9137 23.2238 30.9303C23.2458 30.9468 23.2678 30.9688 23.2789 30.9963C23.2954 31.0238 23.3064 31.0514 23.3174 31.0844C23.3284 31.1174 23.3339 31.1449 23.3339 31.1669C23.3339 31.1945 23.3284 31.222 23.3174 31.255C23.3064 31.2881 23.2954 31.3156 23.2789 31.3431C23.2623 31.3706 23.2458 31.3926 23.2238 31.4147C23.2018 31.4312 23.1798 31.4422 23.1523 31.4422H22.2605V31.9321L22.2715 31.9761H22.7174L23.2954 32.8679H23.8678L23.2844 31.9541C23.3669 31.9321 23.4385 31.8936 23.51 31.844C23.5816 31.7945 23.6422 31.7339 23.6972 31.6569Z" fill="url(#paint2_linear)"/>
<path d="M28.2495 32.1193C28.189 32.1854 28.1174 32.2349 28.0349 32.2734C27.9523 32.312 27.8642 32.334 27.7706 32.334H27.5945V32.8679H27.7706C27.9413 32.8679 28.1064 32.8349 28.2551 32.7688C28.4092 32.7028 28.5413 32.6147 28.6514 32.4991C28.767 32.3835 28.8551 32.2514 28.9211 32.1028C28.9872 31.9487 29.0202 31.789 29.0202 31.6184C29.0202 31.4477 28.9872 31.2826 28.9211 31.134C28.8551 30.9798 28.767 30.8477 28.6514 30.7376C28.5358 30.622 28.4037 30.534 28.2551 30.4679C28.1009 30.4019 27.9413 30.3688 27.7706 30.3688H27.4129H26.8789V32.8679H27.4129V30.9028H27.7706C27.8642 30.9028 27.9523 30.9248 28.0349 30.9633C28.1174 31.0019 28.189 31.0514 28.2495 31.1175C28.3101 31.1835 28.3596 31.2551 28.3982 31.3431C28.4312 31.4312 28.4532 31.5193 28.4532 31.6184C28.4532 31.7175 28.4367 31.8055 28.3982 31.8936C28.3596 31.9762 28.3156 32.0532 28.2495 32.1193Z" fill="url(#paint3_linear)"/>
<rect x="29.2678" y="30.3688" width="0.533941" height="2.48808" fill="url(#paint4_linear)"/>
<path d="M30.3579 30.3688V31.6184C30.3579 31.789 30.3799 31.9542 30.4295 32.1028C30.4735 32.2569 30.5451 32.389 30.6386 32.4991C30.7322 32.6147 30.8423 32.7028 30.9744 32.7688C31.1065 32.8349 31.2607 32.8679 31.4313 32.8679C31.6019 32.8679 31.7561 32.8349 31.8882 32.7688C32.0203 32.7028 32.1359 32.6147 32.224 32.4991C32.3175 32.3835 32.3836 32.2514 32.4331 32.1028C32.4772 31.9487 32.5047 31.789 32.5047 31.6184V30.3688H31.9708V31.6184C31.9708 31.712 31.9597 31.8055 31.9377 31.8881C31.9212 31.9762 31.8882 32.0477 31.8441 32.1138C31.8001 32.1798 31.7451 32.2294 31.679 32.2734C31.613 32.312 31.5304 32.334 31.4313 32.334C31.3322 32.334 31.2497 32.312 31.1836 32.2734C31.1175 32.2349 31.0625 32.1798 31.0185 32.1138C30.9744 32.0477 30.9469 31.9707 30.9249 31.8881C30.9084 31.8 30.8974 31.712 30.8919 31.6184V30.3688H30.3579Z" fill="url(#paint5_linear)"/>
<path d="M33.512 30.9028H34.5303C34.5689 30.8147 34.6349 30.6826 34.6459 30.6606C34.679 30.5835 34.7175 30.5064 34.7505 30.4294V30.3743H33.5065C33.4074 30.3743 33.3193 30.3908 33.2312 30.4294C33.1432 30.4679 33.0716 30.5174 33.0056 30.5835C32.9395 30.6496 32.89 30.7211 32.8514 30.8092C32.8129 30.8973 32.7964 30.9853 32.7964 31.0844C32.7964 31.1835 32.8129 31.2716 32.8514 31.3596C32.89 31.4477 32.9395 31.5193 33.0056 31.5853C33.0716 31.6514 33.1432 31.7009 33.2312 31.7395C33.3193 31.778 33.4074 31.7945 33.5065 31.7945H34.2166C34.2386 31.7945 34.2606 31.8055 34.2881 31.822C34.3101 31.8385 34.3322 31.8661 34.3432 31.8936C34.3597 31.9211 34.3707 31.9486 34.3817 31.9817C34.3927 32.0147 34.3982 32.0422 34.3982 32.0642C34.3982 32.0918 34.3927 32.1193 34.3817 32.1468C34.3707 32.1743 34.3597 32.2074 34.3432 32.2294C34.3267 32.2569 34.3101 32.2789 34.2881 32.2954C34.2661 32.3119 34.2441 32.323 34.2166 32.323H33.1927C33.1542 32.4055 33.1101 32.5046 33.1046 32.5211C33.0606 32.6147 33.0221 32.7083 32.978 32.8019V32.8569H34.2221C34.3212 32.8569 34.4092 32.8349 34.4973 32.7853C34.5854 32.7413 34.6569 32.6808 34.723 32.6037C34.789 32.5266 34.8386 32.4441 34.8771 32.3505C34.9157 32.2569 34.9322 32.1578 34.9322 32.0587C34.9322 31.9596 34.9157 31.8661 34.8771 31.767C34.8386 31.6734 34.789 31.5853 34.723 31.5083C34.6569 31.4312 34.5854 31.3707 34.4973 31.3211C34.4092 31.2716 34.3212 31.2496 34.2221 31.2496H33.512C33.4624 31.2496 33.4184 31.233 33.3854 31.2C33.3524 31.167 33.3358 31.123 33.3358 31.0734C33.3358 31.0239 33.3524 30.9798 33.3854 30.9468C33.4184 30.9193 33.4624 30.9028 33.512 30.9028Z" fill="url(#paint6_linear)"/>
</g>
<defs>
<linearGradient id="paint0_linear" x1="65.2933" y1="23.4192" x2="23.4584" y2="-16.1037" gradientUnits="userSpaceOnUse">
<stop offset="0.00537634" stop-color="#7846C4"/>
<stop offset="0.6745" stop-color="#2B89EE"/>
<stop offset="1" stop-color="#0BA5FF"/>
</linearGradient>
<linearGradient id="paint1_linear" x1="37.1724" y1="27.1317" x2="22.6803" y2="23.5983" gradientUnits="userSpaceOnUse">
<stop offset="0.00537634" stop-color="#7846C4"/>
<stop offset="0.6745" stop-color="#2B89EE"/>
<stop offset="1" stop-color="#0BA5FF"/>
</linearGradient>
<linearGradient id="paint2_linear" x1="36.7142" y1="25.6463" x2="21.96" y2="23.4975" gradientUnits="userSpaceOnUse">
<stop offset="0.00537634" stop-color="#7846C4"/>
<stop offset="0.6745" stop-color="#2B89EE"/>
<stop offset="1" stop-color="#0BA5FF"/>
</linearGradient>
<linearGradient id="paint3_linear" x1="36.9051" y1="24.7209" x2="22.1519" y2="22.5628" gradientUnits="userSpaceOnUse">
<stop offset="0.00537634" stop-color="#7846C4"/>
<stop offset="0.6745" stop-color="#2B89EE"/>
<stop offset="1" stop-color="#0BA5FF"/>
</linearGradient>
<linearGradient id="paint4_linear" x1="36.0512" y1="-1.26609" x2="21.3835" y2="-1.40068" gradientUnits="userSpaceOnUse">
<stop offset="0.00537634" stop-color="#7846C4"/>
<stop offset="0.6745" stop-color="#2B89EE"/>
<stop offset="1" stop-color="#0BA5FF"/>
</linearGradient>
<linearGradient id="paint5_linear" x1="37.0809" y1="23.8772" x2="22.3287" y2="21.7082" gradientUnits="userSpaceOnUse">
<stop offset="0.00537634" stop-color="#7846C4"/>
<stop offset="0.6745" stop-color="#2B89EE"/>
<stop offset="1" stop-color="#0BA5FF"/>
</linearGradient>
<linearGradient id="paint6_linear" x1="37.1586" y1="23.509" x2="22.407" y2="21.3336" gradientUnits="userSpaceOnUse">
<stop offset="0.00537634" stop-color="#7846C4"/>
<stop offset="0.6745" stop-color="#2B89EE"/>
<stop offset="1" stop-color="#0BA5FF"/>
</linearGradient>
</defs>
</svg>
